<svg width="66" height="66" xmlns="http://www.w3.org/2000/svg" version="1.1" xml:space="preserve">
 <g id="Layer_1">
  <title>Layer 1</title>
  <path stroke="#000" stroke-width="0" id="svg_2" d="m15.13914,6.96869l38.68466,0l0,0c5.0678,0 9.17606,2.98476 9.17606,6.66664c0,3.68188 -4.10826,6.66663 -9.17606,6.66663l-38.68466,0l0,0c-5.0678,0 -9.17606,-2.98475 -9.17606,-6.66663c0,-3.68188 4.10826,-6.66664 9.17606,-6.66664z" fill="#162447"/>
  <path stroke="#000" stroke-width="0" opacity="0.95" id="svg_3" d="m15.27117,25.48713l37.67987,0l0,0c4.93618,0 8.93773,2.98475 8.93773,6.66663c0,3.68188 -4.00156,6.66664 -8.93773,6.66664l-37.67987,0l0,0c-4.93615,0 -8.93771,-2.98476 -8.93771,-6.66664c0,-3.68188 4.00156,-6.66663 8.93771,-6.66663z" fill="#162447"/>
  <path stroke="#000" stroke-width="0" opacity="0.95" id="svg_4" d="m15.33075,44.00556l37.93107,0l0,0c4.96909,0 8.99731,2.98475 8.99731,6.66663c0,3.68188 -4.02824,6.66664 -8.99731,6.66664l-37.93107,0l0,0c-4.96906,0 -8.9973,-2.98476 -8.9973,-6.66664c0,-3.68188 4.02824,-6.66663 8.9973,-6.66663z" fill="#162447"/>
 </g>

</svg>